<svg width="12" height="12" viewBox="0 0 12 12" fill="none" xmlns="http://www.w3.org/2000/svg">
<path fill-rule="evenodd" clip-rule="evenodd" d="M4.67674 7.35211H1.32193C0.591849 7.35211 0 6.76026 0 6.03018C0 5.3001 0.591849 4.70825 1.32193 4.70825H4.67674V1.32326C4.67674 0.592445 5.26918 0 6 0C6.73082 0 7.32326 0.592445 7.32326 1.32326V4.70825H10.6781C11.4082 4.70825 12 5.3001 12 6.03018C12 6.76026 11.4082 7.35211 10.6781 7.35211H7.32326V10.6767C7.32326 11.4076 6.73082 12 6 12C5.26918 12 4.67674 11.4076 4.67674 10.6767V7.35211Z" fill="#FE5000"/>
</svg>
